# xmcd
#
# Track frame offsets: 
#        150
#        15465
#        33640
#        51825
#        71892
#        87362
#        106565
#        119015
#        141072
#        164462
#        184762
#        200480
#        224637
#        240877
#        273230
#
# Disc length: 3709 seconds
#
# Revision: 3
# Processed by: cddbd v1.5.2PL0 Copyright (c) Steve Scherf et al.
# Submitted via: ExactAudioCopy v1.0b3
#
DISCID=d70e7b0f
DTITLE=Tamia - More
DYEAR=2004
DGENRE=R&B
TTITLE0=On My Way (Feat. Red Cafe)
TTITLE1=More (Feat. Freck The Billionaire)
TTITLE2=Officially Missing You
TTITLE3=Still
TTITLE4=Questions
TTITLE5=Whispers
TTITLE6=I'm Yours Lately
TTITLE7=Into You (Feat. Fabolous)
TTITLE8=Smile
TTITLE9=Poetry
TTITLE10=Mr Cool (Feat. Mario Winans)
TTITLE11=(They Long To Be) Close To You (Feat. Gerald Levert)
TTITLE12=Why Ask Why
TTITLE13=Tomorrow
TTITLE14=Data Track
EXTD=
EXTT0=
EXTT1=
EXTT2=
EXTT3=
EXTT4=
EXTT5=
EXTT6=
EXTT7=
EXTT8=
EXTT9=
EXTT10=
EXTT11=
EXTT12=
EXTT13=
EXTT14=
PLAYORDER=
